<svg xmlns="http://www.w3.org/2000/svg" viewBox="0 0 1920 1200" width="1920" height="1200" role="img" preserveAspectRatio="xMidYMid slice">
    <defs>
      <linearGradient id="skyGrad" x1="0" y1="0" x2="0" y2="1">
        <stop offset="0%" stop-color="#EFE7D6"/>
        <stop offset="55%" stop-color="#E4D9C4"/>
        <stop offset="100%" stop-color="#6FA8B5" stop-opacity="0.35"/>
      </linearGradient>
      <linearGradient id="waterGrad" x1="0" y1="0" x2="0" y2="1">
        <stop offset="0%" stop-color="#6FA8B5" stop-opacity="0.55"/>
        <stop offset="100%" stop-color="#4A5D45" stop-opacity="0.75"/>
      </linearGradient>
      <linearGradient id="mtnGrad" x1="0" y1="0" x2="0" y2="1">
        <stop offset="0%" stop-color="#4A5D45" stop-opacity="0.55"/>
        <stop offset="100%" stop-color="#4A5D45" stop-opacity="0.85"/>
      </linearGradient>
    </defs>
    <rect width="1920" height="1200" fill="url(#skyGrad)"/>
    <path d="M 0,1200 L 0,560 L 192,620 L 384,581 L 576,518 L 768,480 L 960,577 L 1152,624 L 1344,564 L 1536,502 L 1728,487 L 1920,587 L 1920,1200 Z" fill="url(#mtnGrad)" opacity="0.28"/><path d="M 0,1200 L 0,620 L 192,664 L 384,558 L 576,528 L 768,630 L 960,684 L 1152,658 L 1344,571 L 1536,561 L 1728,636 L 1920,704 L 1920,1200 Z" fill="url(#mtnGrad)" opacity="0.42"/><path d="M 0,1200 L 0,700 L 192,714 L 384,561 L 576,683 L 768,773 L 960,764 L 1152,634 L 1344,578 L 1536,703 L 1728,779 L 1920,777 L 1920,1200 Z" fill="url(#mtnGrad)" opacity="0.65"/><rect x="0" y="760" width="1920" height="440" fill="url(#waterGrad)"/><path d="M 0,800.0 L 240.0,804.8 L 480.0,791.9 L 720.0,806.3 L 960.0,800.5 L 1200.0,794.9 L 1440.0,807.8 L 1680.0,795.1 L 1920.0,800.1 " fill="none" stroke="#F5F1E8" stroke-opacity="0.12" stroke-width="2"/><path d="M 0,860.0 L 240.0,864.3 L 480.0,851.9 L 720.0,870.1 L 960.0,852.6 L 1200.0,866.3 L 1440.0,857.7 L 1680.0,857.8 L 1920.0,864.5 " fill="none" stroke="#F5F1E8" stroke-opacity="0.108" stroke-width="2"/><path d="M 0,920.0 L 240.0,920.5 L 480.0,917.3 L 720.0,923.5 L 960.0,914.8 L 1200.0,927.4 L 1440.0,911.6 L 1680.0,929.3 L 1920.0,910.7 " fill="none" stroke="#F5F1E8" stroke-opacity="0.096" stroke-width="2"/><path d="M 0,980.0 L 240.0,979.9 L 480.0,983.3 L 720.0,975.7 L 960.0,987.2 L 1200.0,971.3 L 1440.0,987.5 L 1680.0,970.5 L 1920.0,989.2 " fill="none" stroke="#F5F1E8" stroke-opacity="0.08399999999999999" stroke-width="2"/><path d="M 0,1040.0 L 240.0,1036.2 L 480.0,1051.0 L 720.0,1029.0 L 960.0,1050.4 L 1200.0,1030.9 L 1440.0,1044.5 L 1680.0,1043.0 L 1920.0,1031.2 " fill="none" stroke="#F5F1E8" stroke-opacity="0.072" stroke-width="2"/><path d="M 0,1100.0 L 240.0,1092.3 L 480.0,1112.4 L 720.0,1091.9 L 960.0,1101.8 L 1200.0,1108.5 L 1440.0,1088.0 L 1680.0,1108.5 L 1920.0,1098.7 " fill="none" stroke="#F5F1E8" stroke-opacity="0.06" stroke-width="2"/><circle cx="1497.6000000000001" cy="330" r="120" fill="#C08A66" opacity="0.25"/><circle cx="1497.6000000000001" cy="330" r="70" fill="#F5F1E8" opacity="0.5"/><path d="M 585.6,900.0 Q 585.6,900.0 581.6,916.8 Q 577.6,933.5 563.3,949.0 Q 549.0,964.5 530.6,954.2 Q 512.3,943.8 492.3,933.8 Q 472.3,923.8 479.6,902.7 Q 487.0,881.6 500.5,870.4 Q 514.0,859.2 530.9,850.8 Q 547.7,842.5 562.3,854.8 Q 576.8,867.1 581.2,883.5 Z" fill="#F5F1E8" opacity="0.1"/><path d="M 664.3,860.0 Q 664.3,860.0 660.7,880.8 Q 657.1,901.5 637.1,907.7 Q 617.1,913.9 596.5,914.4 Q 575.9,914.8 555.2,900.7 Q 534.5,886.6 535.4,860.3 Q 536.2,834.0 554.6,817.1 Q 573.1,800.2 597.1,791.8 Q 621.1,783.4 640.6,799.7 Q 660.1,816.0 662.2,838.0 Z" fill="#F5F1E8" opacity="0.08"/><path d="M 766.9,820.0 Q 766.9,820.0 754.8,847.3 Q 742.8,874.7 716.9,885.2 Q 690.9,895.6 666.9,887.9 Q 642.9,880.1 619.7,864.8 Q 596.6,849.5 591.7,818.2 Q 586.9,787.0 612.9,770.0 Q 638.9,752.9 666.3,741.0 Q 693.6,729.1 710.0,754.1 Q 726.4,779.1 746.6,799.5 Z" fill="#F5F1E8" opacity="0.060000000000000005"/></svg>